<?xml version="1.0" standalone="no"?><!DOCTYPE svg PUBLIC "-//W3C//DTD SVG 1.1//EN" "http://www.w3.org/Graphics/SVG/1.1/DTD/svg11.dtd"><svg class="icon" width="200px" height="200.00px" viewBox="0 0 1024 1024" version="1.1" xmlns="http://www.w3.org/2000/svg"><path d="M853.333333 256a42.666667 42.666667 0 0 1 42.666667 42.666667v554.666666a42.666667 42.666667 0 0 1-85.333333 0V298.666667a42.666667 42.666667 0 0 1 42.666666-42.666667z m-170.666666 128c23.552 0 42.666667 19.029333 42.666666 42.453333v427.093334c0 23.466667-19.114667 42.453333-42.666666 42.453333s-42.666667-19.029333-42.666667-42.453333V426.453333c0-23.466667 19.114667-42.453333 42.666667-42.453333z m-170.666667 128a42.666667 42.666667 0 0 1 42.666667 42.666667v298.666666a42.666667 42.666667 0 1 1-85.333334 0v-298.666666a42.666667 42.666667 0 0 1 42.666667-42.666667z m-170.666667 128c23.552 0 42.666667 18.986667 42.666667 42.410667v171.178666c0 23.424-19.114667 42.410667-42.666667 42.410667s-42.666667-18.986667-42.666666-42.410667v-171.178666c0-23.424 19.114667-42.410667 42.666666-42.410667z m-170.666666 128c23.552 0 42.666667 18.773333 42.666666 41.984v44.032A42.325333 42.325333 0 0 1 170.666667 896c-23.552 0-42.666667-18.773333-42.666667-41.984v-44.032A42.325333 42.325333 0 0 1 170.666667 768z m285.098666-640c29.525333 0 52.650667 7.04 69.290667 21.12 16.64 14.08 26.538667 34.602667 29.610667 61.525333h-49.962667c-2.304-14.250667-7.338667-24.704-15.146667-31.317333-7.808-6.613333-18.56-9.898667-32.256-9.898667-17.493333 0-30.72 6.528-39.893333 19.626667-9.088 13.141333-13.738667 32.682667-13.824 58.538667v15.914666c0 26.154667 4.949333 45.866667 14.848 59.221334 9.941333 13.354667 24.490667 20.053333 43.648 20.053333 19.285333 0 33.024-4.138667 41.258667-12.373333V287.530667h-46.72v-37.802667H554.666667v99.413333c-9.258667 11.093333-22.314667 19.626667-39.168 25.728A164.138667 164.138667 0 0 1 459.349333 384c-21.546667 0-40.448-4.693333-56.746666-14.08a94.165333 94.165333 0 0 1-37.632-41.002667c-8.832-17.92-13.354667-38.997333-13.610667-63.146666v-16.938667c0-24.874667 4.224-46.421333 12.586667-64.597333a93.013333 93.013333 0 0 1 36.266666-41.813334c15.786667-9.6 34.304-14.421333 55.552-14.421333z m-173.909333 3.413333v155.392h28.202667v39.850667h-28.202667V380.586667h-49.493333V326.656H130.261333L128 295.509333 231.850667 131.413333h50.005333z m-49.493333 67.413334l-3.242667 5.674666-51.84 82.304h55.125333V198.826667z" fill="#1296db" /></svg>