<?xml version="1.0" standalone="no"?><!DOCTYPE svg PUBLIC "-//W3C//DTD SVG 1.1//EN" "http://www.w3.org/Graphics/SVG/1.1/DTD/svg11.dtd"><svg class="icon" width="200px" height="200.00px" viewBox="0 0 1024 1024" version="1.1" xmlns="http://www.w3.org/2000/svg"><path d="M157.35 552c18.872 0 35.598-3.951 50.179-11.854 14.58-7.903 26.02-18.867 34.32-32.893s12.45-30.14 12.45-48.342v-0.38c0-17.57-3.865-33.153-11.597-46.747-7.732-13.593-18.357-24.31-31.875-32.148-13.518-7.839-29.019-11.758-46.502-11.758-8.736 0-16.981 1.078-24.736 3.235-7.755 2.156-14.758 5.318-21.009 9.485a57.924 57.924 0 0 0-15.754 15.53h-1.115l9.276-91.95h127.849v-30.333H83.15L69.082 429.902h30.011c1.767-3.176 3.744-6.09 5.932-8.742a82.527 82.527 0 0 1 6.879-7.387c6.038-5.556 12.981-9.696 20.83-12.42 7.848-2.725 16.37-4.088 25.562-4.088 12.077 0 22.765 2.652 32.065 7.955 9.3 5.304 16.621 12.606 21.965 21.906 5.344 9.3 8.016 19.959 8.016 31.974v0.379c0 12.248-2.64 23.08-7.92 32.498-5.282 9.416-12.635 16.782-22.061 22.095-9.426 5.313-20.304 7.97-32.632 7.97-10.815 0-20.561-2.084-29.24-6.25-8.678-4.168-15.716-9.871-21.112-17.11-5.396-7.24-8.662-15.323-9.798-24.25l-0.19-1.514H64l0.19 2.083c1.388 14.734 6.169 27.905 14.342 39.512 8.174 11.607 19.02 20.756 32.536 27.449C124.585 548.654 140.012 552 157.35 552zM413.113 552c18.056 0 34.24-2.652 48.555-7.955 14.315-5.303 26.477-13.018 36.486-23.143 10.01-10.125 17.654-22.39 22.93-36.792 5.278-14.402 7.916-30.692 7.916-48.869v-27.109H417.935v29.926h76.99v5.191c0 15.3-3.435 28.76-10.303 40.376-6.868 11.617-16.455 20.677-28.76 27.18-12.305 6.502-26.545 9.754-42.719 9.754-13.863 0-26.338-2.563-37.424-7.687-11.086-5.125-20.564-12.517-28.432-22.177-7.868-9.66-13.88-21.344-18.034-35.055-4.155-13.71-6.233-29.151-6.233-46.324v-0.219c0-22.496 3.634-41.864 10.9-58.106 7.267-16.241 17.637-28.726 31.112-37.456 13.474-8.73 29.502-13.094 48.081-13.094 19.361 0 35.634 4.752 48.82 14.256 13.185 9.504 22.873 22.935 29.063 40.293l0.728 2.054h35.572l-0.858-3.33c-4.066-16.342-11.055-30.873-20.968-43.592-9.914-12.72-22.577-22.754-37.99-30.101C452.069 272.674 433.946 269 413.114 269c-25.288 0-47.293 5.744-66.015 17.231-18.722 11.488-33.22 27.693-43.497 48.617-10.276 20.923-15.414 45.673-15.414 74.25v0.218c0 21.738 2.93 41.383 8.788 58.935 5.86 17.551 14.237 32.577 25.134 45.078 10.897 12.5 24.03 22.071 39.397 28.711 15.368 6.64 32.57 9.96 51.607 9.96z" fill="#1296db" /><path d="M865 190m47.373 0l0.254 0q47.373 0 47.373 47.373l0 551.254q0 47.373-47.373 47.373l-0.254 0q-47.373 0-47.373-47.373l0-551.254q0-47.373 47.373-47.373Z" fill="#1296db" /><path d="M707 319m47.373 0l0.254 0q47.373 0 47.373 47.373l0 422.254q0 47.373-47.373 47.373l-0.254 0q-47.373 0-47.373-47.373l0-422.254q0-47.373 47.373-47.373Z" fill="#1296db" /><path d="M549 448m47.373 0l0.254 0q47.373 0 47.373 47.373l0 293.254q0 47.373-47.373 47.373l-0.254 0q-47.373 0-47.373-47.373l0-293.254q0-47.373 47.373-47.373Z" fill="#1296db" /><path d="M391 620m47.373 0l0.254 0q47.373 0 47.373 47.373l0 120.254q0 47.373-47.373 47.373l-0.254 0q-47.373 0-47.373-47.373l0-120.254q0-47.373 47.373-47.373Z" fill="#1296db" /><path d="M233 728m47.373 0l0.254 0q47.373 0 47.373 47.373l0 13.254q0 47.373-47.373 47.373l-0.254 0q-47.373 0-47.373-47.373l0-13.254q0-47.373 47.373-47.373Z" fill="#1296db" /></svg>